<?xml version="1.0" encoding="utf-8"?>
<!-- Generator: Adobe Illustrator 25.2.1, SVG Export Plug-In . SVG Version: 6.00 Build 0)  -->
<svg version="1.1" xmlns="http://www.w3.org/2000/svg" xmlns:xlink="http://www.w3.org/1999/xlink" x="0px" y="0px"
	 viewBox="0 0 709.32 128.81" style="enable-background:new 0 0 709.32 128.81;" xml:space="preserve">
<style type="text/css">
	.st0{fill:#002950;}
	.st1{fill:#F15A22;}
	.st2{fill:#FFFFFF;}
</style>
<symbol  id="EDIT_--_Name_:_Casual_Single" viewBox="-250.26 -58.2 494.52 116.41">
	<rect x="-250.26" y="-18.06" style="fill:none;" width="494.52" height="63.82"/>
	<text transform="matrix(1 0 0 -1 -250.2603 -16.356)" class="st0" style="font-family:'HelveticaNeue'; font-size:87px;">Public </text>
</symbol>
<symbol  id="EDIT_--_Name_:_Casual_Single_2" viewBox="-250.26 -58.2 654.18 116.41">
	<rect x="-250.26" y="-18.06" style="fill:none;" width="654.18" height="63.82"/>
	<text transform="matrix(1 0 0 -1 -250.2603 -16.356)"><tspan x="0" y="0" class="st0" style="font-family:'HelveticaNeue'; font-size:87px;">Student Activi</tspan><tspan x="543.04" y="0" class="st0" style="font-family:'HelveticaNeue'; font-size:87px;">-</tspan></text>
</symbol>
<symbol  id="EDIT_--_Name_:_Casual_Single_3" viewBox="-243.47 -34.36 472.25 80.13">
	<g>
		<path class="st0" d="M-216.24,45.76c6.26,0,11.01-1.61,14.23-4.83c3.22-3.22,4.83-7.73,4.83-13.53c0-5.8-1.61-10.32-4.83-13.57
			c-3.22-3.25-7.96-4.84-14.23-4.79h-18.97v-25.4h-8.26v62.12H-216.24z M-219.03,16.01c4.7-0.06,8.13,0.9,10.31,2.87
			c2.17,1.97,3.26,4.81,3.26,8.53c0,3.71-1.09,6.54-3.26,8.48c-2.18,1.94-5.61,2.91-10.31,2.91h-16.18V16.01H-219.03z"/>
		<path class="st0" d="M-160.95-16.36v7.13h-0.17c-1.57-2.78-3.57-4.83-6-6.13s-5.31-1.96-8.61-1.96c-2.96,0-5.42,0.39-7.39,1.17
			c-1.97,0.78-3.57,1.9-4.79,3.35c-1.22,1.45-2.07,3.18-2.57,5.18c-0.49,2-0.74,4.22-0.74,6.66v29.58h7.4V-1.83
			c0-2.78,0.81-4.99,2.44-6.61c1.62-1.62,3.86-2.44,6.7-2.44c2.26,0,4.22,0.35,5.87,1.04c1.65,0.7,3.03,1.68,4.13,2.96
			c1.1,1.28,1.93,2.77,2.48,4.48c0.55,1.71,0.83,3.58,0.83,5.61v25.4h7.39v-44.98H-160.95z"/>
		<path class="st0" d="M-137.03,45.76V22.53h0.17c1.22,2.49,3.13,4.31,5.74,5.44c2.61,1.13,5.48,1.7,8.61,1.7
			c3.48,0,6.51-0.64,9.09-1.91c2.58-1.28,4.73-3,6.44-5.18c1.71-2.18,3-4.68,3.87-7.53c0.87-2.84,1.3-5.86,1.3-9.05
			c0-3.19-0.42-6.21-1.26-9.05c-0.84-2.84-2.12-5.32-3.83-7.44c-1.71-2.12-3.86-3.78-6.44-5c-2.58-1.22-5.58-1.83-9-1.83
			c-1.1,0-2.33,0.12-3.7,0.35c-1.36,0.23-2.71,0.61-4.05,1.13s-2.6,1.23-3.78,2.13c-1.19,0.9-2.19,2.01-3,3.35h-0.17v-6h-7.4v62.12
			H-137.03z M-110.45,12.66c-0.55,2-1.39,3.78-2.52,5.35c-1.13,1.57-2.58,2.81-4.35,3.74c-1.77,0.93-3.84,1.39-6.22,1.39
			c-2.49,0-4.61-0.49-6.35-1.48c-1.74-0.99-3.16-2.28-4.26-3.87c-1.1-1.6-1.9-3.41-2.39-5.44c-0.49-2.03-0.74-4.09-0.74-6.18
			c0-2.21,0.26-4.34,0.78-6.39c0.52-2.06,1.35-3.87,2.48-5.44c1.13-1.57,2.59-2.83,4.39-3.78c1.8-0.96,3.97-1.44,6.53-1.44
			c2.55,0,4.68,0.49,6.39,1.48c1.71,0.99,3.09,2.29,4.13,3.92c1.04,1.62,1.8,3.48,2.26,5.57c0.46,2.09,0.7,4.23,0.7,6.44
			C-109.63,8.61-109.9,10.66-110.45,12.66z"/>
		<path class="st0" d="M-86.94,45.76v-62.12h-7.4v62.12H-86.94z"/>
		<path class="st0" d="M-77.12,36.71v9.05h7.39v-9.05H-77.12z M-69.72,28.62v-44.98h-7.39v44.98H-69.72z"/>
		<path class="st0" d="M-32.84,20.79c-1.86,1.57-4.35,2.35-7.48,2.35c-2.67,0-4.9-0.49-6.7-1.48c-1.8-0.99-3.23-2.29-4.31-3.92
			c-1.07-1.62-1.84-3.5-2.3-5.61c-0.47-2.12-0.7-4.31-0.7-6.57c0-2.09,0.25-4.12,0.74-6.09c0.49-1.97,1.26-3.73,2.3-5.26
			c1.04-1.54,2.41-2.77,4.09-3.7c1.68-0.93,3.68-1.39,6-1.39c3.65,0,6.51,0.96,8.57,2.87c2.06,1.91,3.32,4.61,3.79,8.09h7.57
			c-0.81-5.57-2.89-9.86-6.22-12.88c-3.34-3.02-7.87-4.52-13.62-4.52c-3.42,0-6.45,0.55-9.09,1.65c-2.64,1.1-4.84,2.67-6.61,4.7
			c-1.77,2.03-3.1,4.45-4,7.26c-0.9,2.81-1.35,5.9-1.35,9.27c0,3.36,0.44,6.51,1.31,9.44c0.87,2.93,2.19,5.48,3.96,7.66
			s3.99,3.89,6.66,5.13c2.67,1.25,5.77,1.87,9.31,1.87c2.55,0,4.94-0.3,7.18-0.91c2.23-0.61,4.21-1.55,5.92-2.83
			c1.71-1.28,3.12-2.89,4.22-4.83c1.1-1.94,1.8-4.25,2.09-6.92h-7.66C-29.77,17.02-30.99,19.23-32.84,20.79z"/>
		<path class="st0" d="M39.63,45.76c6.26,0,11.01-1.61,14.22-4.83c3.22-3.22,4.83-7.73,4.83-13.53c0-5.8-1.61-10.32-4.83-13.57
			c-3.22-3.25-7.96-4.84-14.22-4.79H20.66v-25.4H12.4v62.12H39.63z M36.84,16.01c4.7-0.06,8.13,0.9,10.31,2.87
			c2.18,1.97,3.26,4.81,3.26,8.53c0,3.71-1.09,6.54-3.26,8.48c-2.17,1.94-5.61,2.91-10.31,2.91H20.66V16.01H36.84z"/>
		<path class="st0" d="M63.03,15.36c0.93,2.87,2.32,5.36,4.18,7.48c1.86,2.12,4.15,3.78,6.87,5c2.73,1.22,5.86,1.83,9.4,1.83
			c3.6,0,6.74-0.61,9.44-1.83c2.7-1.22,4.97-2.89,6.83-5c1.86-2.12,3.25-4.61,4.18-7.48c0.93-2.87,1.39-5.96,1.39-9.27
			c0-3.31-0.46-6.38-1.39-9.22c-0.93-2.84-2.32-5.32-4.18-7.44c-1.86-2.12-4.13-3.77-6.83-4.96c-2.7-1.19-5.84-1.78-9.44-1.78
			c-3.54,0-6.67,0.6-9.4,1.78c-2.73,1.19-5.02,2.84-6.87,4.96c-1.86,2.12-3.25,4.6-4.18,7.44c-0.93,2.84-1.39,5.92-1.39,9.22
			C61.64,9.4,62.1,12.48,63.03,15.36z M70.55-1.17c0.72-2.12,1.73-3.89,3-5.31c1.28-1.42,2.77-2.51,4.48-3.26
			c1.71-0.75,3.52-1.13,5.44-1.13s3.73,0.38,5.44,1.13c1.71,0.75,3.2,1.84,4.48,3.26c1.28,1.42,2.28,3.19,3,5.31
			c0.72,2.12,1.09,4.54,1.09,7.26c0,2.73-0.36,5.15-1.09,7.26c-0.73,2.12-1.73,3.9-3,5.35c-1.28,1.45-2.77,2.55-4.48,3.31
			c-1.71,0.75-3.52,1.13-5.44,1.13s-3.73-0.38-5.44-1.13c-1.71-0.75-3.21-1.86-4.48-3.31c-1.28-1.45-2.28-3.23-3-5.35
			c-0.72-2.12-1.09-4.54-1.09-7.26C69.47,3.36,69.83,0.94,70.55-1.17z"/>
		<path class="st0" d="M120.02,45.76v-62.12h-7.4v62.12H120.02z"/>
		<path class="st0" d="M129.84,36.71v9.05h7.39v-9.05H129.84z M137.24,28.62v-44.98h-7.39v44.98H137.24z"/>
		<path class="st0" d="M174.12,20.79c-1.86,1.57-4.35,2.35-7.48,2.35c-2.67,0-4.9-0.49-6.7-1.48c-1.8-0.99-3.23-2.29-4.31-3.92
			c-1.07-1.62-1.84-3.5-2.31-5.61c-0.47-2.12-0.7-4.31-0.7-6.57c0-2.09,0.25-4.12,0.74-6.09c0.49-1.97,1.26-3.73,2.3-5.26
			c1.04-1.54,2.41-2.77,4.09-3.7c1.68-0.93,3.68-1.39,6-1.39c3.65,0,6.51,0.96,8.57,2.87c2.06,1.91,3.32,4.61,3.78,8.09h7.57
			c-0.81-5.57-2.89-9.86-6.22-12.88c-3.34-3.02-7.87-4.52-13.62-4.52c-3.42,0-6.45,0.55-9.09,1.65c-2.64,1.1-4.84,2.67-6.61,4.7
			c-1.77,2.03-3.1,4.45-4,7.26c-0.9,2.81-1.35,5.9-1.35,9.27c0,3.36,0.44,6.51,1.3,9.44c0.87,2.93,2.19,5.48,3.96,7.66
			c1.77,2.17,3.99,3.89,6.66,5.13c2.67,1.25,5.77,1.87,9.31,1.87c2.55,0,4.94-0.3,7.18-0.91c2.23-0.61,4.2-1.55,5.92-2.83
			c1.71-1.28,3.12-2.89,4.22-4.83c1.1-1.94,1.8-4.25,2.09-6.92h-7.66C177.19,17.02,175.97,19.23,174.12,20.79z"/>
		<path class="st0" d="M209.2-22.36c-0.87-2.2-1.73-4.06-2.57-5.57c-0.84-1.51-1.77-2.74-2.78-3.7c-1.02-0.96-2.15-1.65-3.39-2.09
			s-2.68-0.65-4.31-0.65c-0.87,0-1.74,0.06-2.61,0.17c-0.87,0.12-1.71,0.32-2.52,0.61v6.79c0.64-0.29,1.38-0.54,2.22-0.74
			c0.84-0.2,1.55-0.3,2.13-0.3c1.51,0,2.77,0.36,3.78,1.09c1.01,0.73,1.78,1.75,2.31,3.09l3.04,7.57l-17.84,44.72h8.35l13.14-36.8
			h0.17l12.62,36.8h7.83L209.2-22.36z"/>
	</g>
</symbol>
<symbol  id="EDIT_--_Name_:_Casual_Single_4" viewBox="-250.26 -58.2 498.32 116.41">
	<rect x="-250.26" y="-18.06" style="fill:none;" width="498.32" height="63.82"/>
	<text transform="matrix(1 0 0 -1 -250.2593 -16.356)" class="st0" style="font-family:'HelveticaNeue'; font-size:87px;">Business</text>
</symbol>
<symbol  id="EDIT_--_Name_:_Casual_Single_5" viewBox="-250.26 -58.2 654.18 116.41">
	<rect x="-250.26" y="-18.06" style="fill:none;" width="654.18" height="63.82"/>
	<text transform="matrix(1 0 0 -1 -250.2603 -16.356)" class="st0" style="font-family:'HelveticaNeue'; font-size:87px;">Public Policy</text>
</symbol>
<symbol  id="EDIT_--_Name_:_Casual_Single_6" viewBox="-250.26 -58.2 343.25 116.41">
	<rect x="-250.26" y="-18.06" style="fill:none;" width="343.25" height="63.82"/>
	<text transform="matrix(1 0 0 -1 -250.2603 -16.356)"><tspan x="0" y="0" class="st0" style="font-family:'HelveticaNeue'; font-size:87px;">Busi</tspan><tspan x="170.78" y="0" class="st0" style="font-family:'HelveticaNeue'; font-size:87px;">-</tspan></text>
</symbol>
<symbol  id="EDIT_--_Name_:_Casual_Square__x28_center_x29_" viewBox="-188.33 -55.11 376.66 110.22">
	<rect x="-188.33" y="-34.14" style="fill:none;" width="376.66" height="82.38"/>
	<text transform="matrix(1 0 0 -1 -84.4785 13.9756)"><tspan x="0" y="0" class="st0" style="font-family:'HelveticaNeue'; font-size:48px;">Student</tspan><tspan x="-11.95" y="46" class="st0" style="font-family:'HelveticaNeue'; font-size:48px;">Activities</tspan></text>
</symbol>
<symbol  id="EDIT_--_Name_:_Casual_Square__x28_center_x29__2" viewBox="-188.33 -9.11 376.66 64.22">
	<rect x="-188.33" y="10.06" style="fill:none;" width="376.66" height="38.19"/>
	<text transform="matrix(1 0 0 -1 -97.3423 13.9746)" class="st0" style="font-family:'HelveticaNeue'; font-size:48px;">Business</text>
</symbol>
<symbol  id="EDIT_--_Name_:_Casual_Square__x28_center_x29__3" viewBox="-188.33 -92.64 376.66 147.76">
	<rect x="-188.33" y="-92.64" style="fill:none;" width="376.66" height="140.89"/>
	<text transform="matrix(1 0 0 -1 -138.2124 13.9746)" class="st0" style="font-family:'HelveticaNeue'; font-size:48px;">Public Policy</text>
</symbol>
<symbol  id="EDIT_--_Name_:_Casual_Square__x28_left_x29_" viewBox="-167.29 -55.11 334.29 110.22">
	<rect x="-167" y="-34.14" style="fill:none;" width="334" height="82.38"/>
	<text transform="matrix(1 0 0 -1 -167 13.9766)"><tspan x="0" y="0" class="st0" style="font-family:'HelveticaNeue'; font-size:48px;">Student</tspan><tspan x="0" y="46" class="st0" style="font-family:'HelveticaNeue'; font-size:48px;">Activities</tspan></text>
</symbol>
<symbol  id="EDIT_--_Name_:_Casual_Square__x28_left_x29__2" viewBox="-167 -34.14 334 89.25">
	<rect x="-167" y="-34.14" style="fill:none;" width="334" height="82.38"/>
	<text transform="matrix(1 0 0 -1 -167 13.9766)" class="st0" style="font-family:'HelveticaNeue'; font-size:48px;">Business</text>
</symbol>
<symbol  id="EDIT_--_Name_:_Casual_Square__x28_left_x29__3" viewBox="-167 -34.14 334 89.25">
	<rect x="-167" y="-34.14" style="fill:none;" width="334" height="82.38"/>
	<text transform="matrix(1 0 0 -1 -167 13.9766)" class="st0" style="font-family:'HelveticaNeue'; font-size:48px;">Public Policy</text>
</symbol>
<symbol  id="EDIT_--_Name_:_Casual_UTSA_Rowdy_Head_1_" viewBox="-350.07 -24.43 700.13 94.32">
	<rect x="-350.07" y="-24.43" style="fill:none;" width="700.13" height="87.46"/>
	<text transform="matrix(1 0 0 -1 -350.0654 28.7554)" class="st0" style="font-family:'HelveticaNeue'; font-size:48px;">Student Activities</text>
</symbol>
<symbol  id="EDIT_--_Name_:_Casual_UTSA_Rowdy_Head__x28_center_x29_" viewBox="-350.07 -39.21 700.13 94.32">
	<rect x="-350.07" y="-39.21" style="fill:none;" width="700.13" height="87.46"/>
	<text transform="matrix(1 0 0 -1 -187.5801 13.9766)" class="st0" style="font-family:'HelveticaNeue'; font-size:48px;">Student Activities</text>
</symbol>
<symbol  id="EDIT_--_Name_:_Formal_Single_1_" viewBox="-511.96 -32.11 511.96 64.22">
	<rect x="-511.96" y="-21.23" style="fill:none;" width="511.96" height="46.48"/>
	<text transform="matrix(1 0 0 -1 -511.9624 -9.0234)" class="st0" style="font-family:'HelveticaNeue'; font-size:48px;">College of Business</text>
</symbol>
<symbol  id="EDIT_--_Name_:_Formal_Single_2" viewBox="-511.96 -32.11 581.25 64.22">
	<rect x="-511.96" y="-21.23" style="fill:none;" width="581.25" height="46.48"/>
	<text transform="matrix(1 0 0 -1 -511.9619 -9.0234)" class="st0" style="font-family:'HelveticaNeue'; font-size:48px;">College of Business</text>
</symbol>
<symbol  id="EDIT_--_Name_:_Formal_Single_3" viewBox="-511.96 -32.11 581.25 64.22">
	<rect x="-511.96" y="-21.23" style="fill:none;" width="581.25" height="46.48"/>
	<text transform="matrix(1 0 0 -1 -511.9619 -9.0234)" class="st0" style="font-family:'HelveticaNeue'; font-size:48px;">Department of Social Work</text>
</symbol>
<symbol  id="EDIT_--_Name_:_Formal_Square__x28_left_x29_" viewBox="-167 -82.74 334 137.85">
	<rect x="-167" y="-82.74" style="fill:none;" width="334" height="130.98"/>
	<text transform="matrix(1 0 0 -1 -167 13.9731)"><tspan x="0" y="0" class="st0" style="font-family:'HelveticaNeue'; font-size:48px;">College of</tspan><tspan x="0" y="46" class="st0" style="font-family:'HelveticaNeue'; font-size:48px;">Business</tspan></text>
</symbol>
<symbol  id="EDIT_--_Name_:_Formal_Stacked__x28_center_x29_" viewBox="-477.64 0 519.8 69.89">
	<rect x="-477.64" y="0" style="fill:none;" width="519.8" height="63.03"/>
	<text transform="matrix(1 0 0 -1 -430.6123 28.7554)" class="st0" style="font-family:'HelveticaNeue'; font-size:48px;">College of Business</text>
</symbol>
<symbol  id="EDIT_--_Name_:_Formal_Stacked__x28_center_x29__3" viewBox="-477.64 -69.89 955.27 139.78">
	<rect x="-477.64" y="-69.89" style="fill:none;" width="955.27" height="132.92"/>
	<text transform="matrix(1 0 0 -1 -212.8779 28.7549)" class="st0" style="font-family:'HelveticaNeue'; font-size:48px;">College of Business</text>
</symbol>
<symbol  id="EDIT_--_Name_:_Formal_Stacked__x28_left_x29_" viewBox="-350.07 0 522.5 69.89">
	<rect x="-350.07" y="0" style="fill:none;" width="522.5" height="63.03"/>
	<text transform="matrix(1 0 0 -1 -350.0654 28.7559)" class="st0" style="font-family:'HelveticaNeue'; font-size:48px;">College of Business</text>
</symbol>
<symbol  id="EDIT_--_Name_:_Formal_square__x28_center_x29_" viewBox="-188.33 -55.11 376.66 110.22">
	<rect x="-188.33" y="-34.13" style="fill:none;" width="376.66" height="82.38"/>
	<text transform="matrix(1 0 0 -1 -108.8618 13.9761)"><tspan x="0" y="0" class="st0" style="font-family:'HelveticaNeue'; font-size:48px;">College of</tspan><tspan x="11.52" y="46" class="st0" style="font-family:'HelveticaNeue'; font-size:48px;">Business</tspan></text>
</symbol>
<symbol  id="EDIT_--_Name_x2F_Subname_:_Casual_Square__x28_center_x29_" viewBox="-167 -69.53 334 139.07">
	<rect x="-167" y="-69.53" style="fill:none;" width="334" height="132.2"/>
	<text transform="matrix(1 0 0 -1 -141.3574 28.397)"><tspan x="0" y="0" class="st0" style="font-family:'HelveticaNeue'; font-size:48px;">Name of Unit</tspan><tspan x="96.09" y="37" class="st0" style="font-family:'HelveticaNeue'; font-size:26px;">Subtext</tspan></text>
</symbol>
<symbol  id="EDIT_--_Name_x2F_Subname_:_Casual_UTSA_Rowdy_Head__x28_center_x29_" viewBox="-350.07 -47.16 700.13 94.32">
	<rect x="-350.07" y="-47.16" style="fill:none;" width="700.13" height="87.46"/>
	<text transform="matrix(1 0 0 -1 -102.7188 6.0259)"><tspan x="0" y="0" class="st0" style="font-family:'HelveticaNeue'; font-size:48px;">Subname</tspan><tspan x="11.71" y="37" class="st0" style="font-family:'HelveticaNeue'; font-size:26px;">Name of Parent</tspan></text>
</symbol>
<symbol  id="EDIT_--_Name_x2F_Subname_:_Casual_UTSA_Rowdy_Head__x28_left_x29_" viewBox="-350.07 -47.16 700.13 94.32">
	<rect x="-350.07" y="-47.16" style="fill:none;" width="700.13" height="87.46"/>
	<text transform="matrix(1 0 0 -1 -350.0654 6.0259)"><tspan x="0" y="0" class="st0" style="font-family:'HelveticaNeue'; font-size:48px;">Subname</tspan><tspan x="0" y="37" class="st0" style="font-family:'HelveticaNeue'; font-size:26px;">Name of Parent</tspan></text>
</symbol>
<symbol  id="EDIT_--_Subname_:_Casual_Single" viewBox="-364.21 -37.48 206.36 74.96">
	<rect x="-364.21" y="-37.48" style="fill:none;" width="206.36" height="68.09"/>
	<text transform="matrix(1 0 0 -1 -364.2119 -3.6582)" class="st0" style="font-family:'HelveticaNeue'; font-size:48px;">Subname</text>
</symbol>
<symbol  id="EDIT_--_Subname_:_Formal_Single" viewBox="-248.29 -19.07 496.57 38.13">
	<rect x="-248.29" y="-12.84" style="fill:none;" width="496.57" height="27.83"/>
	<text transform="matrix(1 0 0 -1 -248.2847 -5.3579)" class="st0" style="font-family:'HelveticaNeue'; font-size:28.5px;">Office of Graduate Studies</text>
</symbol>
<symbol  id="EDIT_--_Subname_:_Formal_Single_2" viewBox="-248.28 -19.07 496.57 38.13">
	<rect x="-248.28" y="-12.84" style="fill:none;" width="496.57" height="27.83"/>
	<text transform="matrix(1 0 0 -1 -248.2847 -5.3579)" class="st0" style="font-family:'HelveticaNeue'; font-size:28.5px;">College of Public Policy</text>
</symbol>
<symbol  id="Group_-_Casual_Single__x2B__Subname" viewBox="-358.9 -81.51 696.31 154.82">
	
		<use xlink:href="#Group_-_Casual_Single_3"  width="696.29" height="84.36" x="-358.89" y="-34.36" transform="matrix(1 0 0 1 7.191995e-03 23.307)" style="overflow:visible;"/>
	
		<use xlink:href="#EDIT_--_Subname_:_Casual_Single"  width="206.36" height="74.96" id="XMLID_9_" x="-364.21" y="-37.48" transform="matrix(1 0 0 1 5.3167 -44.0319)" style="overflow:visible;"/>
</symbol>
<symbol  id="Group_-_Casual_Single__x2B__Subname__x28_center_x29__---_ALIGN_2" viewBox="-435.74 -81.51 696.29 154.81">
	
		<use xlink:href="#Group_-_Casual_Single_3"  width="696.29" height="84.36" x="-358.89" y="-34.36" transform="matrix(1 0 0 1 -76.8493 23.3056)" style="overflow:visible;"/>
	
		<use xlink:href="#EDIT_--_Subname_:_Casual_Single"  width="206.36" height="74.96" x="-364.21" y="-37.48" transform="matrix(1 0 0 1 261.0131 -44.0304)" style="overflow:visible;"/>
</symbol>
<symbol  id="Group_-_Casual_Single__x2B__Subname__x28_center_x29__---_ALIGN_3" viewBox="-435.74 -81.51 871.44 163.02">
	
		<use xlink:href="#Group_-_Casual_Single_5"  width="871.44" height="116.41" x="-358.89" y="-58.2" transform="matrix(1 0 0 1 -76.8493 23.3056)" style="overflow:visible;"/>
	
		<use xlink:href="#EDIT_--_Subname_:_Casual_Single"  width="206.36" height="74.96" x="-364.21" y="-37.48" transform="matrix(1 0 0 1 261.0131 -44.0304)" style="overflow:visible;"/>
</symbol>
<symbol  id="Group_-_Casual_Single__x2B__Subname_2" viewBox="-358.9 -81.51 871.45 163.02">
	
		<use xlink:href="#Group_-_Casual_Single_5"  width="871.44" height="116.41" x="-358.89" y="-58.2" transform="matrix(1 0 0 1 7.191995e-03 23.307)" style="overflow:visible;"/>
	
		<use xlink:href="#EDIT_--_Subname_:_Casual_Single"  width="206.36" height="74.96" id="XMLID_23_" x="-364.21" y="-37.48" transform="matrix(1 0 0 1 5.3167 -44.0319)" style="overflow:visible;"/>
</symbol>
<symbol  id="Group_-_Casual_Single_2" viewBox="-358.89 -58.2 871.44 116.41">
	
		<use xlink:href="#UTSA_35_"  width="208.27" height="68.06" id="XMLID_58_" x="-104.13" y="-34.03" transform="matrix(1 0 0 1 -254.7538 15.9705)" style="overflow:visible;"/>
	
		<use xlink:href="#EDIT_--_Name_:_Casual_Single_2"  width="654.18" height="116.41" id="XMLID_57_" x="-250.26" y="-58.2" transform="matrix(1 0 0 1 108.6279 -2.441406e-04)" style="overflow:visible;"/>
</symbol>
<symbol  id="Group_-_Casual_Single_3" viewBox="-358.89 -34.36 696.29 84.36">
	
		<use xlink:href="#UTSA_35_"  width="208.27" height="68.06" id="XMLID_13_" x="-104.13" y="-34.03" transform="matrix(1 0 0 1 -254.7538 15.9705)" style="overflow:visible;"/>
	
		<use xlink:href="#EDIT_--_Name_:_Casual_Single_3"  width="472.25" height="80.13" id="XMLID_12_" x="-243.47" y="-34.36" transform="matrix(1 0 0 1 108.6279 -2.441406e-04)" style="overflow:visible;"/>
</symbol>
<symbol  id="Group_-_Casual_Single_4" viewBox="-358.89 -58.2 715.58 116.41">
	
		<use xlink:href="#UTSA_35_"  width="208.27" height="68.06" id="XMLID_41_" x="-104.13" y="-34.03" transform="matrix(1 0 0 1 -254.7538 15.9705)" style="overflow:visible;"/>
	
		<use xlink:href="#EDIT_--_Name_:_Casual_Single_4"  width="498.32" height="116.41" id="XMLID_38_" x="-250.26" y="-58.2" transform="matrix(1 0 0 1 108.6279 -2.441406e-04)" style="overflow:visible;"/>
</symbol>
<symbol  id="Group_-_Casual_Single_5" viewBox="-358.89 -58.2 871.44 116.41">
	
		<use xlink:href="#UTSA_35_"  width="208.27" height="68.06" id="XMLID_67_" x="-104.13" y="-34.03" transform="matrix(1 0 0 1 -254.7538 15.9705)" style="overflow:visible;"/>
	
		<use xlink:href="#EDIT_--_Name_:_Casual_Single_5"  width="654.18" height="116.41" id="XMLID_66_" x="-250.26" y="-58.2" transform="matrix(1 0 0 1 108.6279 -2.441406e-04)" style="overflow:visible;"/>
</symbol>
<symbol  id="Group_-_Casual_Single_6" viewBox="-358.89 -58.2 560.5 116.41">
	
		<use xlink:href="#UTSA_35_"  width="208.27" height="68.06" id="XMLID_56_" x="-104.13" y="-34.03" transform="matrix(1 0 0 1 -254.7538 15.9705)" style="overflow:visible;"/>
	
		<use xlink:href="#EDIT_--_Name_:_Casual_Single_6"  width="343.25" height="116.41" id="XMLID_55_" x="-250.26" y="-58.2" transform="matrix(1 0 0 1 108.6279 -2.441406e-04)" style="overflow:visible;"/>
</symbol>
<symbol  id="Group_-_Formal_Single" viewBox="-620.59 -44.72 729.22 89.45">
	
		<use xlink:href="#UTSA_35_"  width="208.27" height="68.06" x="-104.13" y="-34.03" transform="matrix(1 0 0 1 -516.4553 10.6955)" style="overflow:visible;"/>
	
		<use xlink:href="#EDIT_--_Name_:_Formal_Single_1_"  width="511.96" height="64.22" id="XMLID_44_" x="-511.96" y="-32.11" transform="matrix(1 0 0 1 108.6273 -12.6127)" style="overflow:visible;"/>
</symbol>
<symbol  id="Group_-_Formal_Single__x2B__Sig_2" viewBox="-620.59 -45.91 798.5 91.82">
	
		<use xlink:href="#Group_-_Formal_Single_3"  width="798.5" height="89.45" x="-620.59" y="-44.72" transform="matrix(1 0 0 1 0 -1.1871)" style="overflow:visible;"/>
	
		<use xlink:href="#Signature__x28_formal_x29__-_28.5pt"  width="496.57" height="38.13" id="XMLID_11_" x="-494.33" y="-18.8" transform="matrix(1 0 0 1 90.9984 26.5835)" style="overflow:visible;"/>
</symbol>
<symbol  id="Group_-_Formal_Single_2" viewBox="-620.59 -23.33 796.2 73.2">
	
		<use xlink:href="#EDIT_--_Name_:_Formal_Single_2"  width="581.25" height="64.22" id="XMLID_50_" x="-511.96" y="-32.11" transform="matrix(1 0 0 1 106.3243 17.7583)" style="overflow:visible;"/>
	
		<use xlink:href="#UTSA_35_"  width="208.27" height="68.06" x="-104.13" y="-34.03" transform="matrix(1 0 0 1 -516.4553 10.6955)" style="overflow:visible;"/>
</symbol>
<symbol  id="Group_-_Formal_Single_3" viewBox="-620.59 -44.72 798.5 89.45">
	
		<use xlink:href="#UTSA_35_"  width="208.27" height="68.06" x="-104.13" y="-34.03" transform="matrix(1 0 0 1 -516.4553 10.6955)" style="overflow:visible;"/>
	
		<use xlink:href="#EDIT_--_Name_:_Formal_Single_3"  width="581.25" height="64.22" id="XMLID_14_" x="-511.96" y="-32.11" transform="matrix(1 0 0 1 108.6273 -12.6127)" style="overflow:visible;"/>
</symbol>
<symbol  id="Group_-_Formal_Stacked__x2B__Sig__x28_center_x29__---_ALIGN_2" viewBox="-248.28 7.5 496.57 116.54">
	
		<use xlink:href="#Signature__x28_formal_x29__-_28.5pt"  width="496.57" height="38.13" x="-494.33" y="-18.8" transform="matrix(1 0 0 1 246.049 26.3022)" style="overflow:visible;"/>
	
		<use xlink:href="#UTSA_35_"  width="208.27" height="68.06" x="-104.13" y="-34.03" transform="matrix(1 0 0 1 1.688489e-04 90.01)" style="overflow:visible;"/>
</symbol>
<symbol  id="Rowdy_Head_4_" viewBox="-71.75 -33.98 143.5 67.96">
	<g>
		<g>
			<g>
				<polygon class="st0" points="-55.96,-5.41 -55.26,-5.41 -55.26,-3.32 -54.68,-3.32 -54.68,-2.73 -56.53,-2.73 -56.53,-3.32 
					-55.96,-3.32 				"/>
				<polygon class="st0" points="-53.59,-3.87 -52.98,-5.41 -52.7,-5.41 -52.05,-3.87 -52.05,-3.87 -51.85,-5.41 -51.15,-5.41 
					-51.56,-2.73 -52.25,-2.73 -52.83,-4.17 -53.38,-2.73 -54.06,-2.73 -54.52,-5.41 -53.82,-5.41 -53.6,-3.87 				"/>
				<path class="st0" d="M26.94,3.43l0.71,4.74l-3.68-1.68c-4.09,8.55-18.52,29.2-61.76,27.38c0,0,15.29-5.94,20.44-13.09
					c0,0-12.75,9.85-37.65,3.96c0,0,18.91-4.19,24.05-11.84c0,0-12.95,8.15-33.15,2.46c0,0,14.37-1.27,21.19-8.56
					c0,0-14.3,3.21-28.84-1.29c0,0,17.86-1.68,24.34-10.93l-15.63-5.09c28.89-3.62,50.5-18.19,57.63-23.46
					c25.22,11.61,53.33,19.44,77.17,15.85C63.61-2.11,43.44,1.28,26.94,3.43z M13.1,8.8l2.26,4.55l2.98-14.12
					c0,0-6.91,10.43-30.9,15C-12.57,14.24,3.19,16.1,13.1,8.8z M8.38-3.85c1.91-0.5,4.15,0.32,5.31,1.88l1.32-0.8
					C12.36-5.06,7.56-7.55,2.85-4.27c-3.82,2.66-2.09,7.21,0.42,8.61l4.06-2.46C6.91,1.52,6.56,1.09,6.3,0.61
					C5.31-1.3,6.23-3.29,8.38-3.85z M-13.22-1.13c-4.02-0.05-14.4-0.83-27.18-8.24C-32.24,1.78-14.47,9.03-1.14,5.95
					C-2.87,4.59-4.23,2.98-4.6,1.59C-6.3-4.8-1.48-8.04,5.04-8.76c-3.38-1.73-11.06-2.62-16,1.19C-13.42-5.67-13.65-1.96-13.22-1.13
					z M-3.27-15.09l3.97-2.28l-11.77-7.05L-3.27-15.09z M-6.71-28.59l9.59,9.69l6.7-4.02L-6.71-28.59z M16.68-20.12
					c-4.71,1.25-7.74,3.44-9.19,4.71l29.86,0.01C30.16-16.47,23.88-18.09,16.68-20.12z M7.65-12.45c2.6,2.13,9.45,6.96,22.21,11.25
					C44.35-3.14,56.9-6.4,63.55-13.43C63.55-13.43,30.06-9.64,7.65-12.45z"/>
				<path class="st0" d="M29.43-3.35c-1.53-0.4-6.31-2.75-7.18-3.24c0,0,9.38,1.65,17.5,1.22C37.09-4.12,32.98-3.21,29.43-3.35z"/>
			</g>
			<g>
				<path class="st1" d="M18.33-0.76l-2.98,14.12L13.1,8.8c-9.9,7.3-25.67,5.43-25.67,5.43C11.41,9.67,18.33-0.76,18.33-0.76z"/>
				<path class="st1" d="M5.04-8.76C-1.48-8.04-6.3-4.8-4.6,1.59c0.38,1.39,1.73,3.01,3.46,4.36C-14.47,9.03-32.24,1.78-40.4-9.38
					c12.79,7.41,23.16,8.19,27.18,8.24c-0.44-0.83-0.2-4.54,2.26-6.44C-6.02-11.38,1.66-10.49,5.04-8.76z"/>
				<polygon class="st1" points="-3.27,-15.09 -11.07,-24.43 0.7,-17.37 				"/>
				<polygon class="st1" points="-6.71,-28.59 9.58,-22.93 2.88,-18.91 				"/>
			</g>
			<g>
				<path class="st2" d="M7.33,1.88L3.27,4.34c-2.51-1.4-4.24-5.95-0.42-8.61c4.71-3.28,9.51-0.79,12.15,1.49l-1.32,0.8
					c-1.16-1.56-3.4-2.38-5.31-1.88C6.23-3.29,5.31-1.3,6.3,0.61C6.56,1.09,6.91,1.52,7.33,1.88z"/>
				<path class="st2" d="M29.86-1.2C17.1-5.49,10.26-10.32,7.65-12.45c22.41,2.81,55.9-0.98,55.9-0.98
					C56.9-6.4,44.35-3.14,29.86-1.2z M22.25-6.59c0.87,0.5,5.65,2.84,7.18,3.24c3.55,0.14,7.67-0.77,10.33-2.03
					C31.63-4.95,22.25-6.59,22.25-6.59z"/>
				<path class="st2" d="M16.68-20.12c7.2,2.03,13.48,3.65,20.67,4.72L7.49-15.41C8.94-16.68,11.97-18.87,16.68-20.12z"/>
			</g>
		</g>
	</g>
</symbol>
<symbol  id="Signature__x28_casual_x29__-_larger_30pt_3_" viewBox="-257.33 -20.07 511.57 40.14">
	<rect x="-257.33" y="-12.05" style="fill:none;" width="511.57" height="27.83"/>
	<text transform="matrix(1 0 0 -1 -257.3281 -5.6392)"><tspan x="0" y="0" class="st0" style="font-family:'HelveticaNeue'; font-size:30px;">The University of Texas at San Anto</tspan><tspan x="478.91" y="0" class="st0" style="font-family:'HelveticaNeue'; font-size:30px;">-</tspan></text>
</symbol>
<symbol  id="Signature__x28_formal_x29__-_28.5pt" viewBox="-494.33 -18.8 496.57 38.13">
	<rect x="-494.33" y="-12.58" style="fill:none;" width="496.57" height="27.83"/>
	<text transform="matrix(1 0 0 -1 -494.3335 -5.0957)" class="st0" style="font-family:'HelveticaNeue'; font-size:28.5px;">The University of Texas at San Antonio</text>
</symbol>
<symbol  id="UTSA_35_" viewBox="-104.13 -34.03 208.27 68.06">
	<g>
		<path class="st1" d="M52.14,32.32L34.42-13.74c0.09,1.06,0.14,2.13,0.14,3.19c0,10.46-6.94,15-15.95,17.66L14.33,8.4
			c-2.91,0.94-7.46,2.4-7.46,6.17c0,3.6,4.12,5.39,7.2,5.39c4.12,0,8.06-1.71,11.15-4.28l6.68,13.03
			c-5.75,3.26-13.71,5.32-20.23,5.32c-8.06,0-14.72-3.33-18.6-9v7.29h-40.8h-3.77h-13.03V-1.71c0-8.41-0.6-17.57-11.4-17.57
			c-10.8,0-11.4,9.17-11.4,17.57v34.03h-16.8V-4.03c0-8.31,0.34-16.54,6.77-22.8c5.4-5.32,13.89-7.2,21.43-7.2
			c7.55,0,16.03,1.88,21.43,7.2c6.43,6.26,6.77,14.49,6.77,22.8v22.11h10.12v-50.4h16.8v50.4h10.88c-0.43-1.8-0.68-3.71-0.68-5.74
			c0-12.52,6.94-15.26,17.48-18.26c3.61-1.03,10.21-2.66,10.21-7.38c0-4.53-4.2-6.51-8.15-6.51c-5.74,0-10.71,3-14.92,6.69
			l-7.19-13.55c6.6-4.63,14.57-7.37,22.71-7.37c6.51,0,13.29,1.79,18.34,6.08c0.63,0.54,1.21,1.11,1.74,1.71l-2.34-6.08h17.83
			l4.46,11.23h23.15l4.19-11.23h17.92L70.48,32.32H52.14z M54.19-8.23l6.94,20.57h0.18l6.85-20.57H54.19z"/>
		<path class="st1" d="M99.72-23.95h-0.03c-2.49,0-4.47-1.93-4.47-4.34c0-2.46,1.98-4.36,4.47-4.36c2.52,0,4.45,1.91,4.45,4.36
			C104.13-25.89,102.2-23.95,99.72-23.95z M99.72-31.75c-1.96,0-3.39,1.53-3.39,3.46c0,1.9,1.43,3.46,3.33,3.46h0.03
			c1.93,0,3.34-1.56,3.34-3.46C103.03-30.22,101.62-31.78,99.72-31.75z"/>
		<path class="st1" d="M100.7-28.43v0.05c0.53,0.16,0.9,0.53,0.9,1.03c0,0.4-0.19,0.75-0.42,0.93c-0.32,0.22-0.69,0.35-1.51,0.35
			c-0.71,0-1.26-0.09-1.66-0.16v-4.3h1v1.72h0.48c0.55,0,0.82-0.21,0.89-0.69c0.13-0.51,0.22-0.87,0.35-1.03h1.08
			c-0.11,0.13-0.19,0.4-0.31,1.06C101.36-28.9,101.12-28.56,100.7-28.43z M99.51-28.11h-0.48v1.25c0.11,0.03,0.29,0.05,0.56,0.05
			c0.64,0,0.92-0.27,0.92-0.66C100.51-27.92,100.06-28.11,99.51-28.11z"/>
	</g>
</symbol>
<symbol  id="UTSA__x2B__Rowdy_Head_4_" viewBox="-169.42 -34.03 338.85 68.06">
	
		<use xlink:href="#Rowdy_Head_4_"  width="143.5" height="67.96" x="-71.75" y="-33.98" transform="matrix(1 0 0 1 97.6727 0.0456)" style="overflow:visible;"/>
	
		<use xlink:href="#UTSA_35_"  width="208.27" height="68.06" x="-104.13" y="-34.03" transform="matrix(1 0 0 1 -65.2895 -4.875580e-06)" style="overflow:visible;"/>
</symbol>
<g id="Annotations">
</g>
<g id="Group_-_Formal_Stacked">
	<g id="Group_-_Formal_Stacked__x2B__Child_and_Signature">
		<g id="Group_-_Formal_Stacked__x2B__Child_and_Signature__x28_center_x29_">
			<g id="UTSA_25_">
			</g>
		</g>
		<g id="Group_-_Formal_Stacked__x2B__Child_and_Signature__x28_left_x29_">
			<g id="UTSA_24_">
			</g>
		</g>
	</g>
	<g id="Group_-_Formal_Stacked__x2B__Child">
		<g id="Group_-_Formal_Stacked__x2B__Child__x28_center_x29_">
			<g id="UTSA_23_">
			</g>
		</g>
		<g id="Group_-_Formal_Stacked__x2B__Child__x28_left_x29_">
			<g id="UTSA_22_">
			</g>
		</g>
	</g>
	<g id="Group_-_Formal_Stacked__x2B__Signature">
		<g id="Group_-_Formal_Stacked__x2B__Signature__x28_center_x29_">
			<g id="UTSA_13_">
			</g>
		</g>
		<g id="Group_-_Formal_Stacked__x2B__Signature__x28_left_x29_">
			<g id="UTSA_12_">
			</g>
		</g>
	</g>
	<g id="Group_-_Formal_Stacked_1_">
		<g id="Group_-_Formal_Stacked__x28_center_x29_">
			<g id="UTSA_11_">
			</g>
		</g>
		<g id="Group_-_Formal_Stacked__x28_left_x29__1_">
			<g id="UTSA_10_">
			</g>
		</g>
	</g>
</g>
<g id="Group_-_Formal_Single_2_">
	<g id="Group_-_Formal_Single_-_Child__x2B__Parent_and_Signature">
		<g id="UTSA_34_">
		</g>
	</g>
	<g id="Group_-_Formal_Single_-_Child__x2B__Parent">
		<g id="UTSA_33_">
		</g>
	</g>
	<g id="Group_-_Formal_Single_-_Single__x2B__Signature">
		<g id="UTSA_1_">
		</g>
		<g id="EDIT_--_Name_:_Formal_Single">
		</g>
	</g>
	<g id="Group_-_Formal_Single_-_Condensed">
		<g id="UTSA_3_">
		</g>
	</g>
	<g id="Group_-_Formal_Single_3_">
		<g id="UTSA">
		</g>
	</g>
</g>
<g id="Group_-_Casual_Single_1_">
	<g id="Group_-_Casual_Single__x22_Promo_x22___x2B__Child_and_Signature">
		<g id="Group_-_Casual_Single__x22_Promo_x22___x2B__Child_and_Signature__x28_center_x29_">
			<g id="UTSA_29_">
			</g>
		</g>
		<g id="Group_-_Casual_Single__x22_Promo_x22___x2B__Child_and_Signature__x28_left_x29_">
			<g id="UTSA_28_">
			</g>
			<g id="Signature__x28_casual_x29__-_larger_30pt_2_">
			</g>
		</g>
	</g>
	<g id="Group_-_Casual_Single__x22_Promo_x22___x2B__Child">
		<g id="Group_-_Casual_Single__x22_Promo_x22___x2B__Child__x28_center_x29_">
			<g id="UTSA_27_">
			</g>
		</g>
		<g id="Group_-_Casual_Single__x22_Promo_x22___x2B__Child__x28_left_x29_">
			<g id="UTSA_26_">
			</g>
		</g>
	</g>
	<g id="Group_-_Casual_Single__x22_Promo_x22___x2B__Signature">
		<g id="Group_-_Casual_Single__x22_Promo_x22___x2B__Signature__x28_center_x29_">
			<g id="UTSA_17_">
			</g>
			<g id="Signature__x28_casual_x29__-_larger_30pt_1_">
			</g>
		</g>
		<g id="Group_-_Casual_Single__x22_Promo_x22___x2B__Signature__x28_left_x29_">
			<g id="UTSA_16_">
			</g>
			<g id="Signature__x28_casual_x29__-_larger_30pt">
			</g>
		</g>
	</g>
	<g id="Group_-_Casual_Single__x22_Promo_x22__-_Abbreviation">
		<g id="UTSA_15_">
		</g>
	</g>
	<g id="Group_-_Casual_Single__x22_Promo_x22_">
		<g id="UTSA_14_">
		</g>
	</g>
</g>
<g id="Group_-_Casual_Square">
	<g id="Group_-_Casual_Square__x2B__Subname">
		<g id="Group_-_Casual_Square__x2B__Subname__x28_left_x29_">
			<g id="UTSA_30_">
			</g>
		</g>
		<g id="Group_-_Casual_Square__x2B__Subname__x28_center_x29_">
			<g id="UTSA_31_">
			</g>
		</g>
	</g>
	<g id="Group_-_Casual_Square_Single">
		<g id="Group_-_Casual_Square_Single__x28_left_x29_">
			<g id="Group_-_Casual_Square_Single_-_Small_Version__x28_left_x29_">
				<g id="UTSA_19_">
				</g>
			</g>
			<g id="Group_-_Casual_Square_Single__x28_left_x29__1_">
				<g id="UTSA_18_">
				</g>
			</g>
		</g>
		<g id="Group_-_Casual_Square_Single__x28_center_x29_">
			<g id="Group_-_Casual_Square_Single_-_Small_Version__x28_center_x29_">
				<g id="UTSA_21_">
				</g>
			</g>
			<g id="Group_-_Casual_Square_Single__x28_center_x29__1_">
				<g id="UTSA_20_">
				</g>
			</g>
		</g>
	</g>
</g>
<g id="Group_-_Formal_Square">
	<g id="Group_-_Formal_Square_-_Single">
		<g id="Group_-_Formal_Square_-_Single__x28_left_x29_">
			<g id="Group_-_Formal_Square_-_Single__x28_left_x29__1_">
				<g id="UTSA_4_">
				</g>
			</g>
			<g id="Group_-_Formal_Square_-_Single_-_Small_Version__x28_left_x29_">
				<g id="UTSA_5_">
				</g>
			</g>
		</g>
		<g id="Group_-_Formal_Square_-_Single__x28_center_x29_">
			<g id="Group_-_Formal_Square_-_Single__x28_center_x29__1_">
				<g id="UTSA_8_">
				</g>
			</g>
			<g id="Group_-_Formal_Square_-_Single_-_Small_Version__x28_center_x29_">
				<g id="UTSA_9_">
				</g>
			</g>
		</g>
	</g>
</g>
<g id="Group_-_Casual_Rowdy">
	<g id="Group_-_Casual_Rowdy__x2B__Subname">
		<g id="Group_-_Casual_Rowdy_Body__x2B__Subname">
			<g id="Casual_Rowdy_Body__x2B__Subname__x28_center_x29_">
			</g>
			<g id="Casual_Rowdy_Body__x2B__Subname__x28_left_x29_">
			</g>
		</g>
		<g id="Group_-_Casual_Rowdy_Head_x2B__Subname">
			<g id="Casual_Rowdy_Head__x2B__Subname__x28_center_x29_">
				<g id="UTSA__x2B__Rowdy_Head_3_">
					<g id="Rowdy_Head_3_">
					</g>
					<g id="UTSA_32_">
					</g>
				</g>
			</g>
			<g id="Casual_Rowdy_Head__x2B__Subname__x28_left_x29_">
				<g id="UTSA__x2B__Rowdy_Head_2_">
					<g id="Rowdy_Head_2_">
					</g>
					<g id="UTSA_7_">
					</g>
				</g>
			</g>
		</g>
	</g>
	<g id="Group_-_Casual_Rowdy_-_Single">
		<g id="Group_-_Casual_Rowdy_Body_-_Single">
			<g id="Casual_Rowdy_Body_-_Single__x28_center_x29_">
			</g>
			<g id="Casual_Rowdy_Body_-_Single__x28_left_x29_">
				<g id="EDIT_--_Name_:_Casual_UTSA_Rowdy_Body">
				</g>
			</g>
		</g>
		<g id="Group_-_Casual_Rowdy_Head_-_Single">
			<g id="Casual_Rowdy_Head_-_Single__x28_left_x29_">
				<g id="UTSA__x2B__Rowdy_Head">
					<g id="Rowdy_Head">
					</g>
					<g id="UTSA_2_">
					</g>
				</g>
				<g id="EDIT_--_Name_:_Casual_UTSA_Rowdy_Head">
				</g>
			</g>
			<g id="Casual_Rowdy_Head_-_Single__x28_center_x29_">
				<g id="UTSA__x2B__Rowdy_Head_1_">
					<g id="Rowdy_Head_1_">
					</g>
					<g id="UTSA_6_">
					</g>
				</g>
			</g>
		</g>
	</g>
	<g>
		<polygon class="st0" points="403.01,45.66 403.81,45.66 403.81,43.23 404.49,43.23 404.49,42.55 402.34,42.55 402.34,43.23 
			403.01,43.23 		"/>
		<polygon class="st0" points="405.74,43.87 406.46,45.66 406.78,45.66 407.53,43.87 407.53,43.87 407.76,45.66 408.57,45.66 
			408.1,42.55 407.29,42.55 406.63,44.21 406,42.55 405.2,42.55 404.67,45.66 405.48,45.66 405.74,43.87 		"/>
		<path class="st0" d="M499.07,35.41l0.83-5.5l-4.27,1.95c-4.75-9.91-21.46-33.84-71.57-31.73c0,0,17.72,6.89,23.69,15.17
			c0,0-14.78-11.42-43.63-4.59c0,0,21.92,4.86,27.87,13.72c0,0-15-9.44-38.41-2.85c0,0,16.66,1.47,24.55,9.93
			c0,0-16.58-3.72-33.42,1.49c0,0,20.7,1.95,28.21,12.67l-18.11,5.9c33.48,4.19,58.52,21.09,66.78,27.18
			c29.23-13.46,61.8-22.53,89.43-18.37C541.57,41.83,518.2,37.91,499.07,35.41z M483.03,29.18l2.62-5.28l3.45,16.36
			c0,0-8.01-12.09-35.81-17.38C453.28,22.88,471.55,20.72,483.03,29.18z M477.56,43.85c2.22,0.58,4.81-0.37,6.15-2.18l1.53,0.93
			c-3.06,2.64-8.63,5.53-14.09,1.73c-4.43-3.08-2.42-8.35,0.49-9.98l4.7,2.85c-0.49,0.42-0.89,0.92-1.19,1.48
			C474.01,40.88,475.08,43.2,477.56,43.85z M452.54,40.7c-4.66,0.06-16.68,0.97-31.5,9.55c9.45-12.93,30.05-21.33,45.49-17.76
			c-2,1.57-3.57,3.44-4,5.05c-1.97,7.4,3.62,11.16,11.17,11.99c-3.92,2-12.81,3.04-18.54-1.38C452.3,45.96,452.03,41.66,452.54,40.7
			z M464.06,56.87l4.61,2.64l-13.64,8.17L464.06,56.87z M460.07,72.52l11.12-11.22l7.76,4.66L460.07,72.52z M487.18,62.7
			c-5.46-1.45-8.97-3.99-10.65-5.45l34.6-0.01C502.81,58.47,495.53,60.35,487.18,62.7z M476.72,53.81
			c3.02-2.47,10.95-8.06,25.74-13.04c16.79,2.25,31.34,6.04,39.04,14.18C541.5,54.95,502.69,50.55,476.72,53.81z"/>
		<path class="st0" d="M501.96,43.27c-1.77,0.47-7.31,3.18-8.32,3.76c0,0,10.87-1.91,20.29-1.41
			C510.84,44.16,506.07,43.1,501.96,43.27z"/>
	</g>
	<g>
		<path class="st1" d="M489.09,40.27l-3.45-16.36l-2.62,5.28c-11.48-8.46-29.75-6.3-29.75-6.3
			C481.08,28.18,489.09,40.27,489.09,40.27z"/>
		<path class="st1" d="M473.69,49.53c-7.55-0.83-13.15-4.58-11.17-11.99c0.43-1.62,2-3.48,4-5.05
			c-15.44-3.57-36.04,4.83-45.49,17.76c14.82-8.58,26.84-9.49,31.5-9.55c-0.51,0.96-0.24,5.26,2.62,7.46
			C460.88,52.57,469.77,51.54,473.69,49.53z"/>
		<polygon class="st1" points="464.06,56.87 455.02,67.69 468.67,59.52 		"/>
		<polygon class="st1" points="460.07,72.52 478.95,65.95 471.19,61.29 		"/>
	</g>
	<g>
		<path class="st2" d="M476.35,37.2l-4.7-2.85c-2.91,1.62-4.92,6.9-0.49,9.98c5.46,3.8,11.02,0.91,14.09-1.73l-1.53-0.93
			c-1.34,1.8-3.93,2.76-6.15,2.18c-2.48-0.64-3.55-2.96-2.4-5.17C475.45,38.12,475.86,37.63,476.35,37.2z"/>
		<path class="st2" d="M502.46,40.77c-14.79,4.98-22.72,10.58-25.74,13.04c25.97-3.26,64.78,1.14,64.78,1.14
			C533.8,46.81,519.25,43.02,502.46,40.77z M493.64,47.03c1.01-0.57,6.55-3.29,8.32-3.76c4.11-0.17,8.88,0.9,11.97,2.35
			C504.51,45.12,493.64,47.03,493.64,47.03z"/>
		<path class="st2" d="M487.18,62.7c8.34-2.35,15.62-4.23,23.95-5.47l-34.6,0.01C478.21,58.71,481.72,61.25,487.18,62.7z"/>
	</g>
	<g>
		<path class="st1" d="M339.42,1.98l-20.53,53.38c0.11-1.23,0.16-2.47,0.16-3.7c0-12.12-8.04-17.39-18.48-20.46l-4.96-1.49
			c-3.38-1.09-8.65-2.78-8.65-7.15c0-4.17,4.77-6.25,8.35-6.25c4.77,0,9.35,1.98,12.92,4.96l7.75-15.1
			C309.31,2.38,300.08,0,292.53,0c-9.34,0-17.06,3.86-21.56,10.43V1.98h-47.29h-4.37h-15.1v39.44c0,9.74-0.7,20.37-13.21,20.37
			c-12.52,0-13.21-10.62-13.21-20.37V1.98h-19.47v42.12c0,9.63,0.4,19.17,7.85,26.42c6.26,6.16,16.1,8.35,24.84,8.35
			c8.75,0,18.58-2.18,24.84-8.35c7.45-7.25,7.85-16.79,7.85-26.42V18.48h11.73v58.41h19.47V18.48h12.61
			c-0.5,2.08-0.78,4.3-0.78,6.65c0,14.51,8.05,17.69,20.26,21.16c4.18,1.2,11.83,3.09,11.83,8.55c0,5.25-4.87,7.54-9.44,7.54
			c-6.65,0-12.42-3.48-17.29-7.75l-8.34,15.7c7.65,5.36,16.89,8.54,26.32,8.54c7.54,0,15.4-2.08,21.26-7.05
			c0.73-0.62,1.41-1.29,2.02-1.99l-2.71,7.05h20.67l5.17-13.01h26.83l4.86,13.01h20.76L360.67,1.98H339.42z M341.8,48.97l8.04-23.84
			h0.21l7.94,23.84H341.8z"/>
		<path class="st1" d="M394.56,67.2h-0.03c-2.88,0-5.18,2.24-5.18,5.03c0,2.85,2.3,5.05,5.18,5.05c2.92,0,5.15-2.21,5.15-5.05
			C399.68,69.44,397.44,67.2,394.56,67.2z M394.56,76.24c-2.27,0-3.93-1.78-3.93-4.01c0-2.2,1.65-4.01,3.86-4.01h0.03
			c2.24,0,3.87,1.81,3.87,4.01C398.39,74.46,396.76,76.26,394.56,76.24z"/>
		<path class="st1" d="M395.69,72.38v-0.06c0.61-0.18,1.04-0.61,1.04-1.19c0-0.47-0.21-0.87-0.49-1.07c-0.37-0.25-0.8-0.4-1.75-0.4
			c-0.82,0-1.46,0.1-1.92,0.19v4.99h1.16v-1.99h0.56c0.64,0,0.95,0.25,1.04,0.8c0.15,0.59,0.25,1.01,0.4,1.19h1.26
			c-0.12-0.16-0.21-0.46-0.36-1.23C396.46,72.93,396.18,72.53,395.69,72.38z M394.31,72.02h-0.55v-1.45
			c0.12-0.03,0.34-0.06,0.64-0.06c0.74,0,1.07,0.31,1.07,0.77C395.47,71.79,394.96,72.02,394.31,72.02z"/>
	</g>
	<g>
		<path class="st0" d="M9.23,121.56V97.28H0v-3.24h22.22v3.24H13v24.28H9.23z"/>
		<path class="st0" d="M25.85,94.08h3.62v11.17c1.18-2.02,3.55-3.16,6.21-3.16c2.02,0,4.92,0.72,6.02,3.05
			c0.38,0.76,0.65,1.68,0.65,4.46v11.97h-3.66v-11.32c0-1.71,0-5.41-4.12-5.41c-2.67,0-4,1.64-4.5,2.55
			c-0.61,1.07-0.61,2.86-0.61,4.04v10.14h-3.62V94.08z"/>
		<path class="st0" d="M51.32,112.64c-0.08,3.97,1.56,6.9,5.49,6.9c2.33,0,4.19-1.22,4.5-3.96h3.58c-0.12,0.95-0.27,2.51-1.64,4
			c-0.84,0.95-2.74,2.56-6.59,2.56c-6.02,0-8.88-3.74-8.88-9.8c0-3.78,0.76-6.9,3.77-9c1.83-1.3,4.12-1.41,5.22-1.41
			c8.58,0,8.39,7.59,8.31,10.71H51.32z M61.42,110.13c0.04-1.83-0.31-5.64-4.73-5.64c-2.33,0-5.15,1.41-5.22,5.64H61.42z"/>
		<path class="st0" d="M84.94,94.04v17.04c0,2.94,0.65,4.15,1.22,4.95c1.72,2.29,4.38,2.71,6.29,2.71c7.43,0,7.43-5.83,7.43-7.81
			V94.04h3.7V111c0,1.49-0.04,4.58-2.25,7.32c-2.71,3.39-6.9,3.81-8.88,3.81c-2.59,0-7.17-0.73-9.72-4.38
			c-0.84-1.22-1.6-2.82-1.6-6.94V94.04H84.94z"/>
		<path class="st0" d="M110.72,104.64l-0.04-2.21h3.58l0.04,3.09c0.42-0.8,1.79-3.47,6.14-3.47c1.72,0,6.94,0.65,6.94,6.52v13h-3.66
			V109.4c0-1.26-0.15-2.4-1.03-3.28c-0.92-0.88-2.17-1.3-3.39-1.3c-2.59,0-4.99,1.87-4.99,5.72v11.02h-3.58V104.64z"/>
		<path class="st0" d="M133.55,94.12h4.31v3.93h-4.31V94.12z M133.93,102.42h3.58v19.14h-3.58V102.42z"/>
		<path class="st0" d="M142.35,102.42h4l6.1,15.17l5.95-15.17h3.96l-8.39,19.14h-3.62L142.35,102.42z"/>
		<path class="st0" d="M168.62,112.64c-0.08,3.97,1.56,6.9,5.49,6.9c2.33,0,4.19-1.22,4.5-3.96h3.58c-0.12,0.95-0.27,2.51-1.64,4
			c-0.84,0.95-2.74,2.56-6.59,2.56c-6.02,0-8.88-3.74-8.88-9.8c0-3.78,0.76-6.9,3.77-9c1.83-1.3,4.12-1.41,5.22-1.41
			c8.58,0,8.39,7.59,8.31,10.71H168.62z M178.72,110.13c0.04-1.83-0.31-5.64-4.73-5.64c-2.33,0-5.15,1.41-5.22,5.64H178.72z"/>
		<path class="st0" d="M187.84,106.31c0-1.3-0.08-2.63-0.19-3.89h3.62l0.08,3.7c0.69-2.67,2.97-3.54,4.57-3.77
			c1.07-0.15,1.87-0.11,2.48-0.08v3.51c-0.19-0.08-0.42-0.11-0.69-0.15c-0.27-0.04-0.61-0.04-1.03-0.04c-4.23,0-5.22,2.52-5.22,5.79
			v10.18h-3.62V106.31z"/>
		<path class="st0" d="M205.29,115.88c-0.04,1.45,0.72,3.47,4.19,3.47c1.49,0,2.59-0.27,3.35-1.22c0.38-0.5,0.61-1.14,0.61-1.79
			c0-1.87-1.34-2.21-4.19-2.86c-4-0.92-7.36-1.72-7.36-5.72c0-3.51,3.05-5.79,7.47-5.79c2.4,0,5.76,0.68,6.9,2.97
			c0.5,1.07,0.5,1.98,0.5,2.78h-3.66c0.11-2.9-2.4-3.13-3.7-3.13c-0.53,0-3.89,0-3.89,2.75c0,1.75,1.71,2.17,2.71,2.44
			c5.3,1.26,6.44,1.56,7.59,2.63c1.07,0.99,1.45,2.33,1.45,3.55c0,2.13-1.18,3.96-2.59,4.84c-1.68,1.03-3.7,1.3-5.68,1.3
			c-3.89,0-7.51-1.6-7.47-6.21H205.29z"/>
		<path class="st0" d="M221.95,94.12h4.31v3.93h-4.31V94.12z M222.33,102.42h3.58v19.14h-3.58V102.42z"/>
		<path class="st0" d="M229.95,102.35h3.39v-4l3.54-1.14v5.15h4.27v2.63h-4.27v11.48c0,0.95,0,2.55,2.56,2.55
			c0.72,0,1.41-0.11,1.72-0.19v2.78c-0.65,0.11-1.68,0.23-2.97,0.23c-3.28,0-4.84-0.95-4.84-4.08v-12.77h-3.39V102.35z"/>
		<path class="st0" d="M254.2,121.68l-2.75,7.13h-3.7l2.9-7.32l-7.97-19.06h4.04l5.99,15.09l6.1-15.09h3.89L254.2,121.68z"/>
		<path class="st0" d="M281.54,101.93c7.66,0,9.38,6.02,9.38,10.03c0,5.6-3.16,10.25-9.68,10.25c-6.33,0-9.42-4.38-9.42-9.99
			C271.82,107.5,274.03,101.93,281.54,101.93z M281.31,119.54c2.71,0,5.79-1.94,5.79-7.7c0-4.77-2.21-7.28-5.57-7.28
			c-2.29,0-5.98,1.45-5.98,7.44C275.56,115.92,277.23,119.54,281.31,119.54z"/>
		<path class="st0" d="M306.09,96.71c-0.61-0.04-1.37-0.08-2.1-0.08c-2.9,0-2.9,1.45-2.9,2.78v3.01h4.46v2.59h-4.46v16.54h-3.54
			v-16.54h-3.78v-2.59h3.78v-2.17c0-2.63,0.15-3.58,0.8-4.57c0.8-1.22,2.33-2.1,4.8-2.1c1.03,0,2.17,0.15,2.94,0.27V96.71z"/>
		<path class="st0" d="M323.78,121.56V97.28h-9.22v-3.24h22.22v3.24h-9.22v24.28H323.78z"/>
		<path class="st0" d="M338.2,112.64c-0.08,3.97,1.56,6.9,5.49,6.9c2.33,0,4.19-1.22,4.5-3.96h3.58c-0.12,0.95-0.27,2.51-1.64,4
			c-0.84,0.95-2.74,2.56-6.59,2.56c-6.02,0-8.88-3.74-8.88-9.8c0-3.78,0.76-6.9,3.77-9c1.83-1.3,4.12-1.41,5.22-1.41
			c8.58,0,8.39,7.59,8.31,10.71H338.2z M348.3,110.13c0.04-1.83-0.31-5.64-4.73-5.64c-2.33,0-5.15,1.41-5.22,5.64H348.3z"/>
		<path class="st0" d="M374.11,121.56h-4.73l-5.45-7.66l-5.41,7.66h-4.19l7.59-10.03l-7.17-9.11h4.69l5.11,7.21l5.34-7.21h4.23
			l-7.47,9.34L374.11,121.56z"/>
		<path class="st0" d="M390.08,121.56c-0.27-0.95-0.34-1.87-0.34-2.86c-1.72,3.17-4.31,3.47-5.91,3.47c-4.38,0-6.75-2.48-6.75-5.64
			c0-1.52,0.53-3.96,3.35-5.6c2.06-1.14,5.11-1.26,6.63-1.26c0.92,0,1.49,0.04,2.59,0.11c0-2.36,0-3.39-0.68-4.23
			c-0.73-0.95-2.29-1.26-3.32-1.26c-3.62,0-3.81,2.48-3.85,3.24h-3.58c0.11-0.99,0.23-2.33,1.34-3.62c1.45-1.6,4.16-2.06,6.18-2.06
			c2.78,0,5.76,0.88,6.79,2.82c0.61,1.14,0.65,2.06,0.65,2.94l-0.15,9.15c0,0.31,0.04,2.86,0.31,4.8H390.08z M387.6,112.15
			c-1.45,0-6.9,0-6.9,3.89c0,1.22,0.76,3.32,3.96,3.32c1.83,0,3.2-0.72,4.08-2.06c0.8-1.3,0.84-2.36,0.92-5.03
			C389.01,112.18,388.48,112.15,387.6,112.15z"/>
		<path class="st0" d="M401.67,115.88c-0.04,1.45,0.72,3.47,4.19,3.47c1.49,0,2.59-0.27,3.35-1.22c0.38-0.5,0.61-1.14,0.61-1.79
			c0-1.87-1.33-2.21-4.19-2.86c-4-0.92-7.36-1.72-7.36-5.72c0-3.51,3.05-5.79,7.47-5.79c2.4,0,5.76,0.68,6.9,2.97
			c0.5,1.07,0.5,1.98,0.5,2.78h-3.66c0.11-2.9-2.4-3.13-3.7-3.13c-0.53,0-3.89,0-3.89,2.75c0,1.75,1.72,2.17,2.71,2.44
			c5.3,1.26,6.44,1.56,7.59,2.63c1.07,0.99,1.45,2.33,1.45,3.55c0,2.13-1.18,3.96-2.59,4.84c-1.68,1.03-3.7,1.3-5.68,1.3
			c-3.89,0-7.51-1.6-7.47-6.21H401.67z"/>
		<path class="st0" d="M440.94,121.56c-0.27-0.95-0.34-1.87-0.34-2.86c-1.72,3.17-4.31,3.47-5.91,3.47c-4.38,0-6.75-2.48-6.75-5.64
			c0-1.52,0.53-3.96,3.35-5.6c2.06-1.14,5.11-1.26,6.63-1.26c0.92,0,1.49,0.04,2.59,0.11c0-2.36,0-3.39-0.68-4.23
			c-0.73-0.95-2.29-1.26-3.32-1.26c-3.62,0-3.81,2.48-3.85,3.24h-3.58c0.11-0.99,0.23-2.33,1.34-3.62c1.45-1.6,4.16-2.06,6.18-2.06
			c2.78,0,5.76,0.88,6.79,2.82c0.61,1.14,0.65,2.06,0.65,2.94l-0.15,9.15c0,0.31,0.04,2.86,0.31,4.8H440.94z M438.47,112.15
			c-1.45,0-6.9,0-6.9,3.89c0,1.22,0.76,3.32,3.96,3.32c1.83,0,3.2-0.72,4.08-2.06c0.8-1.3,0.84-2.36,0.92-5.03
			C439.88,112.18,439.34,112.15,438.47,112.15z"/>
		<path class="st0" d="M447.54,102.35h3.39v-4l3.55-1.14v5.15h4.27v2.63h-4.27v11.48c0,0.95,0,2.55,2.55,2.55
			c0.72,0,1.41-0.11,1.71-0.19v2.78c-0.65,0.11-1.67,0.23-2.97,0.23c-3.28,0-4.84-0.95-4.84-4.08v-12.77h-3.39V102.35z"/>
		<path class="st0" d="M476.52,113.52c0.08,1.91,0.31,5.45,6.63,5.45c5.72,0,6.44-3.54,6.44-4.92c0-3.09-2.48-3.7-6.33-4.65
			c-4.19-1.03-6.06-1.49-7.47-2.44c-2.25-1.52-2.86-3.58-2.86-5.41c0-5.61,5.3-8.04,10.48-8.04c1.83,0,5.53,0.3,7.74,2.7
			c1.53,1.68,1.6,3.55,1.68,4.69h-3.96c-0.19-3.43-3.09-4.19-5.79-4.19c-3.81,0-6.1,1.71-6.1,4.46c0,2.44,1.6,3.28,4.95,4.08
			c6.56,1.68,7.28,1.83,8.88,2.9c2.55,1.67,2.75,4.35,2.75,5.49c0,4.88-3.81,8.58-10.87,8.58c-2.1,0-6.37-0.34-8.54-3.13
			c-1.56-2.02-1.6-4.23-1.6-5.56H476.52z"/>
		<path class="st0" d="M510.11,121.56c-0.27-0.95-0.34-1.87-0.34-2.86c-1.72,3.17-4.31,3.47-5.91,3.47c-4.38,0-6.75-2.48-6.75-5.64
			c0-1.52,0.53-3.96,3.35-5.6c2.06-1.14,5.11-1.26,6.63-1.26c0.92,0,1.49,0.04,2.59,0.11c0-2.36,0-3.39-0.68-4.23
			c-0.73-0.95-2.29-1.26-3.32-1.26c-3.62,0-3.81,2.48-3.85,3.24h-3.58c0.11-0.99,0.23-2.33,1.34-3.62c1.45-1.6,4.16-2.06,6.18-2.06
			c2.78,0,5.76,0.88,6.79,2.82c0.61,1.14,0.65,2.06,0.65,2.94l-0.15,9.15c0,0.31,0.04,2.86,0.31,4.8H510.11z M507.64,112.15
			c-1.45,0-6.9,0-6.9,3.89c0,1.22,0.76,3.32,3.96,3.32c1.83,0,3.2-0.72,4.08-2.06c0.8-1.3,0.84-2.36,0.92-5.03
			C509.05,112.18,508.51,112.15,507.64,112.15z"/>
		<path class="st0" d="M519.76,104.64l-0.04-2.21h3.58l0.04,3.09c0.42-0.8,1.79-3.47,6.14-3.47c1.72,0,6.94,0.65,6.94,6.52v13h-3.66
			V109.4c0-1.26-0.15-2.4-1.03-3.28c-0.92-0.88-2.17-1.3-3.39-1.3c-2.59,0-4.99,1.87-4.99,5.72v11.02h-3.58V104.64z"/>
		<path class="st0" d="M560.22,94.04h4.08l11.13,27.52h-4.16l-2.97-7.17h-12.77l-2.97,7.17h-3.93L560.22,94.04z M556.75,111.31
			h10.41l-5.07-13.5L556.75,111.31z"/>
		<path class="st0" d="M579.28,104.64l-0.04-2.21h3.58l0.04,3.09c0.42-0.8,1.79-3.47,6.14-3.47c1.72,0,6.94,0.65,6.94,6.52v13h-3.66
			V109.4c0-1.26-0.15-2.4-1.03-3.28c-0.92-0.88-2.17-1.3-3.39-1.3c-2.59,0-4.99,1.87-4.99,5.72v11.02h-3.58V104.64z"/>
		<path class="st0" d="M599.53,102.35h3.39v-4l3.55-1.14v5.15h4.27v2.63h-4.27v11.48c0,0.95,0,2.55,2.55,2.55
			c0.72,0,1.41-0.11,1.71-0.19v2.78c-0.65,0.11-1.68,0.23-2.97,0.23c-3.28,0-4.84-0.95-4.84-4.08v-12.77h-3.39V102.35z"/>
		<path class="st0" d="M623.47,101.93c7.66,0,9.38,6.02,9.38,10.03c0,5.6-3.16,10.25-9.68,10.25c-6.33,0-9.42-4.38-9.42-9.99
			C613.75,107.5,615.96,101.93,623.47,101.93z M623.24,119.54c2.71,0,5.79-1.94,5.79-7.7c0-4.77-2.21-7.28-5.57-7.28
			c-2.29,0-5.98,1.45-5.98,7.44C617.49,115.92,619.17,119.54,623.24,119.54z"/>
		<path class="st0" d="M638.57,104.64l-0.04-2.21h3.58l0.04,3.09c0.42-0.8,1.79-3.47,6.14-3.47c1.72,0,6.94,0.65,6.94,6.52v13h-3.66
			V109.4c0-1.26-0.15-2.4-1.03-3.28c-0.92-0.88-2.17-1.3-3.39-1.3c-2.59,0-4.99,1.87-4.99,5.72v11.02h-3.58V104.64z"/>
		<path class="st0" d="M661.41,94.12h4.31v3.93h-4.31V94.12z M661.79,102.42h3.58v19.14h-3.58V102.42z"/>
		<path class="st0" d="M680.66,101.93c7.66,0,9.38,6.02,9.38,10.03c0,5.6-3.16,10.25-9.68,10.25c-6.33,0-9.42-4.38-9.42-9.99
			C670.94,107.5,673.15,101.93,680.66,101.93z M680.43,119.54c2.71,0,5.79-1.94,5.79-7.7c0-4.77-2.21-7.28-5.57-7.28
			c-2.29,0-5.98,1.45-5.98,7.44C674.68,115.92,676.35,119.54,680.43,119.54z"/>
		<path class="st0" d="M696.63,100.84v-7.07h-2.26v-0.96h5.58v0.96h-2.34v7.07H696.63z M701.38,92.82h1.85l2.16,6.6l2.2-6.6h1.73
			v8.03h-1.02v-7.2l-2.49,7.2h-1l-2.4-7.2v7.2h-1.02V92.82z"/>
	</g>
</g>
</svg>
